<svg width="30" height="30" viewBox="0 0 30 30" fill="none" xmlns="http://www.w3.org/2000/svg">
<g clip-path="url(#clip0)">
<path d="M25.9316 11.4978C24.8637 11.2116 23.766 11.8454 23.4799 12.9132C23.426 13.116 23.4047 13.3261 23.4167 13.5356L21.5815 14.1122C20.3728 14.4934 19.07 13.9106 18.5484 12.7555L17.5151 10.4633C17.848 10.1995 18.0872 9.83563 18.1973 9.42542C18.4834 8.35756 17.8497 7.25989 16.7818 6.97376C15.714 6.68763 14.6163 7.32136 14.3302 8.38923C14.2204 8.79953 14.2457 9.23426 14.4021 9.62913L12.3611 11.0976C11.3321 11.8367 9.9131 11.6901 9.05696 10.7563L7.75506 9.3391C7.8703 9.1637 7.95688 8.9711 8.01156 8.76849C8.29787 7.70068 7.66435 6.60293 6.5965 6.3166C5.52873 6.0303 4.43097 6.66386 4.14465 7.73167C3.87587 8.73405 4.41774 9.77562 5.39281 10.1309L4.6989 17.2915C4.6752 17.5349 4.83097 17.7599 5.06723 17.8233L21.5024 22.2271C21.7387 22.2903 21.9861 22.1733 22.0873 21.9507L25.0666 15.4025C26.1558 15.5921 27.1924 14.8628 27.382 13.7736C27.5595 12.7541 26.9306 11.7674 25.9316 11.4978Z" fill="#FFC107"/>
<path d="M12.7671 21.9591C17.3055 23.1751 21.2746 23.0789 21.6322 21.744C21.9899 20.4092 18.6007 18.3413 14.0623 17.1252C9.52385 15.9092 5.55478 16.0054 5.19712 17.3403C4.83945 18.6751 8.22863 20.743 12.7671 21.9591Z" fill="#FFA000"/>
<path d="M12.6379 22.4421C8.31351 21.2834 4.20375 19.1149 4.71407 17.2104C5.2244 15.3058 9.86779 15.4828 14.1922 16.6415C18.5165 17.8002 22.6263 19.9686 22.116 21.8732C21.6057 23.7778 16.9623 23.6008 12.6379 22.4421ZM13.9331 17.6082C8.85562 16.2477 5.86217 16.7926 5.68083 17.4694C5.49949 18.1462 7.81943 20.1148 12.8969 21.4753C17.9744 22.8359 20.9679 22.2909 21.1492 21.6142C21.3306 20.9374 19.0106 18.9687 13.9331 17.6082Z" fill="#FFD54F"/>
</g>
<defs>
<clipPath id="clip0">
<rect width="24.0175" height="24.0175" fill="white" transform="translate(6.2168) rotate(15)"/>
</clipPath>
</defs>
</svg>
